<svg xmlns="http://www.w3.org/2000/svg" viewBox="-5 -5 805 805"><g fill-rule="evenodd" stroke-width="0"><path d="M400 0C179.086 0 0 179.086 0 400s179.086 400 400 400 400-179.086 400-400S620.914 0 400 0zm0 10C184.609 10 10 184.609 10 400s174.609 390 390 390c-107.696 0-195-107.696-195-190 0-107.7 87.304-200 195-200 107.7 0 200-107.696 200-200 0-107.696-92.3-190-200-190zm0 655c35.895 0 65-29.105 65-65 0-35.895-29.105-65-65-65-35.895 0-65 29.105-65 65 0 35.895 29.105 65 65 65zm0-533c-37.555 0-68 30.445-68 68s30.445 68 68 68 68-30.445 68-68-30.445-68-68-68z"/></g></svg>